<svg version="1.1" id="Layer_1" xmlns="http://www.w3.org/2000/svg" x="0" y="0" viewBox="0 0 144 45" xml:space="preserve"><path fill="#77BC1F" d="m51.5 37.9-.6-.1c.1-.5.5-.8 1.2-.8.4 0 .7.1.9.3.2.2.3.4.3.6 0 .2 0 .3-.1.4-.1.1-.2.2-.4.3.2.1.4.2.5.3.1.1.2.3.2.5 0 .3-.1.5-.3.7-.2.2-.5.3-.9.3-.3 0-.6-.1-.8-.2-.2-.1-.3-.3-.4-.6l.6-.2c.1.2.1.3.2.4.1.1.2.1.4.1s.4 0 .5-.1c.1-.1.1-.2.1-.3 0-.1-.1-.2-.2-.3-.1-.1-.3-.1-.5-.1h-.1v-.5h.1c.2 0 .4 0 .5-.1.1-.1.2-.2.2-.4 0-.1 0-.2-.1-.3-.1-.1-.2-.1-.4-.1-.7-.2-.8-.1-.9.2zM57.1 40.2h-.7l-.3-.7h-1.3l-.3.7h-.7l1.3-3.2h.7l1.3 3.2zM55.9 39l-.4-1.2L55 39h.9zM57.8 37h1.9c.1 0 .2.1.3.1s.2.2.2.3c.1.1.1.2.1.4s0 .3-.1.4l-.3.3c.2.1.3.2.5.3.1.1.2.3.2.5 0 .1 0 .3-.1.4-.1.1-.2.3-.3.3-.1.1-.3.1-.4.2H57.9V37zm.7.5v.7h.9c.1 0 .2-.1.3-.1.1-.1.1-.1.1-.3 0-.1 0-.2-.1-.2-.1-.1-.1-.1-.2-.1h-1zm0 1.3v.9h1c.1 0 .2-.1.2-.1.1-.1.1-.2.1-.3 0-.1 0-.2-.1-.2 0-.1-.1-.1-.2-.1h-1zM61.2 38.6c0-.3 0-.6.1-.8.1-.2.2-.3.3-.4.1-.1.3-.2.4-.3.2-.1.4-.1.7-.1.5 0 .9.1 1.1.4.3.3.4.7.4 1.2s-.1.9-.4 1.2c-.3.3-.7.4-1.1.4-.5 0-.9-.1-1.1-.4-.3-.2-.4-.6-.4-1.2zm.6 0c0 .4.1.6.3.8.2.2.4.3.6.3.3 0 .5-.1.6-.3.2-.2.3-.5.3-.8 0-.4-.1-.6-.2-.8-.2-.2-.4-.3-.6-.3-.3 0-.5.1-.7.3-.2.2-.3.4-.3.8zM65.4 37h2.2v2.7h.3v1.2h-.5v-.7h-2v.7h-.5v-1.2h.1c.1-.3.2-.6.3-1 0-.4.1-.8.1-1.4V37zm.6.5c0 1-.1 1.7-.3 2.2h1.2v-2.2H66zM70.2 40.2V37H72c.2 0 .3.2.5.3.1.2.2.4.2.6 0 .2 0 .4-.1.5l-.3.3c-.1.1-.2.1-.3.2h-1.1v1.2h-.7zm.7-2.7v.9h.4c.3 0 .4 0 .5-.1.1 0 .2-.1.2-.2s.1-.2.1-.3c0-.1 0-.2-.1-.3-.1-.1-.2-.1-.3-.1h-.8zM73.6 40.2V37H76v.5h-1.7v.7h1.6v.5h-1.6v.9h1.8v.5h-2.5zM77 37h.7v2.7h.9V37h.7v2.7h1V37h.7v3.2h-3.9V37zM81.8 40.2V37h.7v3.2h-.7zM84.2 40.2v-2.7h-1V37h2.6v.5h-1v2.7h-.6zM86.5 37h.7v1.4c.1 0 .2-.1.3-.1.1-.1.1-.2.2-.5s.3-.6.4-.7c.1-.1.4-.1.7-.1h.1v.5h-.4c-.1 0-.1.1-.1.2s-.1.2-.2.4c0 .1-.1.2-.1.3 0 .1-.1.1-.2.2.1 0 .3.1.4.2.1.1.2.3.3.5l.4.9h-.8l-.4-.8v-.1s0-.1-.1-.2c-.1-.2-.2-.3-.2-.3-.1 0-.1-.1-.2-.1v1.4h-.7V37zM89.5 38.6c0-.3 0-.6.1-.8.1-.2.2-.3.3-.4.1-.1.3-.2.4-.3.2-.1.4-.1.7-.1.5 0 .9.1 1.1.4s.4.7.4 1.2-.1.9-.4 1.2c-.3.3-.7.4-1.1.4-.5 0-.9-.1-1.1-.4-.3-.2-.4-.6-.4-1.2zm.7 0c0 .4.1.6.3.8.2.2.4.3.6.3.3 0 .5-.1.6-.3.2-.2.3-.5.3-.8 0-.4-.1-.6-.2-.8-.2-.2-.4-.3-.6-.3-.3 0-.5.1-.7.3-.2.2-.3.4-.3.8zM93.5 37h1.9c.1 0 .2.1.3.1s.2.2.2.3c.1.1.1.2.1.4s0 .3-.1.4l-.3.3c.2.1.3.2.5.3.1.1.2.3.2.5 0 .1 0 .3-.1.4-.1.1-.2.3-.3.3-.1.1-.3.1-.4.2H93.6V37zm.6.5v.7h.9c.1 0 .2-.1.3-.1s.1-.1.1-.3c0-.1 0-.2-.1-.2-.1-.1-.1-.1-.2-.1h-1zm0 1.3v.9h1c.1 0 .2-.1.2-.1.1-.1.1-.2.1-.3 0-.1 0-.2-.1-.2 0-.1-.1-.1-.2-.1h-1zM96.8 38.6c0-.3 0-.6.1-.8.1-.2.2-.3.3-.4.1-.1.3-.2.4-.3.2-.1.4-.1.7-.1.5 0 .9.1 1.1.4.3.3.4.7.4 1.2s-.1.9-.4 1.2c-.3.3-.7.4-1.1.4-.5 0-.9-.1-1.1-.4-.2-.2-.4-.6-.4-1.2zm.7 0c0 .4.1.6.3.8.2.2.4.3.6.3.3 0 .5-.1.6-.3.2-.2.3-.5.3-.8 0-.4-.1-.6-.2-.8-.2-.2-.4-.3-.6-.3-.3 0-.5.1-.7.3-.2.2-.3.4-.3.8zM100.9 37h2.2v.5h-1.5v2.7h-.7V37zM103.5 38.6c0-.3 0-.6.1-.8.1-.2.2-.3.3-.4.1-.1.3-.2.4-.3.2-.1.4-.1.7-.1.5 0 .9.1 1.1.4s.4.7.4 1.2-.1.9-.4 1.2c-.3.3-.7.4-1.1.4-.5 0-.9-.1-1.1-.4-.2-.2-.4-.6-.4-1.2zm.7 0c0 .4.1.6.3.8.2.2.4.3.6.3.3 0 .5-.1.6-.3.2-.2.3-.5.3-.8 0-.4-.1-.6-.2-.8-.2-.2-.4-.3-.6-.3-.3 0-.5.1-.7.3-.2.2-.3.4-.3.8zM109.1 40.2V37h.7v1.3h1.3V37h.7v3.2h-.7v-1.4h-1.3v1.4h-.7zM115.7 40.2h-.7l-.3-.7h-1.3l-.3.7h-.7l1.3-3.2h.7l1.3 3.2zm-1.3-1.2-.4-1.2-.4 1.2h.8zM118.3 39l.6.2c-.1.4-.3.6-.5.8-.2.2-.5.3-.9.3s-.8-.1-1.1-.4c-.3-.3-.4-.7-.4-1.2s.1-1 .4-1.3c.3-.3.6-.4 1.1-.4.4 0 .7.1 1 .4.1.1.3.3.3.6l-.6.2c0-.2-.1-.3-.2-.4-.1-.1-.3-.1-.4-.1-.2 0-.4.1-.6.3-.1.2-.2.5-.2.8 0 .4.1.7.2.9.1.2.3.3.6.3.2 0 .3-.1.4-.2s.2-.5.3-.8zM120.4 40.2v-2.7h-1V37h2.6v.5h-1v2.7h-.6zM122.8 37h.6v2.2l1.3-2.2h.7v3.2h-.6v-2.1l-1.3 2.1h-.7V37zM126.6 37h2.3v3.2h-.7v-2.7h-1v2.2c0 .2-.1.3-.2.4-.1.1-.3.1-.5.1h-.4v-.5h.1c.1 0 .2 0 .3-.1 0 0 .1-.1.1-.3V37zM129.6 37h.7l.8 1.7.6-1.7h.7l-1.1 2.5c-.1.3-.2.5-.4.6-.1.1-.3.2-.5.2h-.5v-.5h.3c.2 0 .3 0 .3-.1.1-.1.1-.2.2-.4l-1.1-2.3z"/><path style="fill:var(--c-b)" d="M131.7 5.3h-4.2c-.5 0-.9.4-.9.9v17.3L113.1 5.7c-.1-.2-.4-.4-.8-.4h-4.6c-.5 0-1 .4-1 1V33c0 .5.3.9.8.9h4.3c.5 0 .9-.4.9-.9V15.7l13.4 17.8c.1.1.3.4.8.4h4.5c.5 0 1-.4 1-1V6.3c.2-.6-.2-1-.7-1zM72.6 5.3H51.5c-.5 0-1 .4-1 1v4.2c0 .5.4 1 1 1h13.8L50.9 28c-.2.3-.3.6-.3 1v4c0 .5.4 1 1 1h21.1c.5 0 1-.4 1-1v-4.2c0-.5-.4-1-1-1H58.8l14.3-16.5c.3-.3.4-.7.4-1.1v-4c0-.5-.4-.9-.9-.9zM83.9 33.9c.5 0 .9-.4.9-.9V19.3c0-.5-.4-.9-.9-.9h-4.3c-.5 0-.9.4-.9.9V33c0 .9.7.9 1 .9h4.2z"/><path fill="#77BC1F" d="M36.5 36.5h-28V25.2h2.9v8.5h22.3v-8.5H45V0H0v17h8.4V8.5h28.2v11.3h-2.8v-8.5H11.3v8.5H0V45h45V28h-8.5z"/><path style="fill:var(--c-b)" d="M102.4 14.9c0-5.6-4.5-9.6-10.1-9.6H79.6c-.5 0-.9.4-.9.9v4.2c0 .5.2.9.9.9h12.7c2.3 0 3.9 1.3 3.9 3.5 0 2.6-2.5 3.5-3.9 3.5h-2.5c-.5 0-1 .4-1 1v4.9c0 .3.1.7.3.9l5.7 8.6c.2.2.3.2.6.2h4.5c.5 0 1-.4 1-1v-.6c0-.3-.1-.6-.3-.9l-4.9-7.6c4.3-1.4 6.7-4.9 6.7-8.9z"/><path fill="#77BC1F" d="M142.5 5.6c0 .9-.8 1.6-1.7 1.6-.9 0-1.6-.7-1.7-1.6H138v5.6h5.6V5.6h-1.1z"/></svg>